<?xml version="1.0" encoding="UTF-8"?>
<svg id="Layer_1" xmlns="http://www.w3.org/2000/svg" version="1.1" viewBox="0 0 1080 700">
  <!-- Generator: Adobe Illustrator 29.7.1, SVG Export Plug-In . SVG Version: 2.1.1 Build 8)  -->
  <path d="M471.98,104.69h287.77v119.78h-279.34c-11,0-20.47,4.02-28.42,12.03-7.97,8-11.95,17.52-11.95,28.57v256.73c0,11.04,3.99,20.44,11.98,28.15,7.97,7.73,17.48,11.6,28.5,11.6h119.79c11.01,0,20.36-3.88,28.08-11.61,7.72-7.75,11.58-17.14,11.58-28.22v-104.57c0-27.11-13.23-40.66-39.66-40.66h-119.79c-5.51,0-8.27-2.49-8.27-7.45v-104.09c0-5.5,2.74-8.25,8.24-8.25h266.92c3.28,0,6.16,1.24,8.64,3.72,2.47,2.47,3.71,5.37,3.71,8.67v251.98c0,106.85-53.31,160.28-159.97,160.28h-119.56c-103.92,0-157.23-50.67-159.97-152.02V104.69h151.74ZM608.57,470.26v50.86c0,5.47-2.5,8.21-7.49,8.21h-120.51c-5.55,0-8.32-2.74-8.32-8.21v-103.36c0-5.48,2.77-8.21,8.32-8.21h120.51c4.99,0,7.49,2.73,7.49,8.21v52.51Z"/>
</svg>