<?xml version="1.0" encoding="UTF-8"?>
<svg id="Layer_1" xmlns="http://www.w3.org/2000/svg" version="1.1" viewBox="0 0 1080 1080">
  <!-- Generator: Adobe Illustrator 29.7.1, SVG Export Plug-In . SVG Version: 2.1.1 Build 8)  -->
  <path d="M471.98,104.69h287.77v119.78h-279.34c-11,0-20.47,4.02-28.42,12.03-7.97,8-11.95,17.52-11.95,28.57v256.73c0,11.04,3.99,20.44,11.98,28.15,7.97,7.73,17.48,11.6,28.5,11.6h119.79c11.01,0,20.36-3.88,28.08-11.61,7.72-7.75,11.58-17.14,11.58-28.22v-104.57c0-27.11-13.23-40.66-39.66-40.66h-119.79c-5.51,0-8.27-2.49-8.27-7.45v-104.09c0-5.5,2.74-8.25,8.24-8.25h266.92c3.28,0,6.16,1.24,8.64,3.72,2.47,2.47,3.71,5.37,3.71,8.67v251.98c0,106.85-53.31,160.28-159.97,160.28h-119.56c-103.92,0-157.23-50.67-159.97-152.02V104.69h151.74ZM608.57,470.26v50.86c0,5.47-2.5,8.21-7.49,8.21h-120.51c-5.55,0-8.32-2.74-8.32-8.21v-103.36c0-5.48,2.77-8.21,8.32-8.21h120.51c4.99,0,7.49,2.73,7.49,8.21v52.51Z" fill="white"/>
  <g fill="white">
    <path d="M353.32,908.82v27.14h15.08c3.93,0,6.54-.59,7.86-1.77,1.76-1.55,2.73-4.28,2.93-8.19h1.89v23.89h-1.89c-.48-3.34-.93-5.48-1.41-6.43-.62-1.17-1.6-2.11-2.99-2.79-1.38-.67-3.5-1-6.39-1h-15.08v22.62c0,3.04.14,4.9.41,5.55.27.67.73,1.19,1.41,1.57.68.4,1.96.59,3.85.59h11.65c3.88,0,6.7-.27,8.46-.81,1.76-.54,3.44-1.6,5.07-3.18,2.09-2.11,4.23-5.26,6.42-9.47h2.03l-5.93,17.22h-52.92v-1.89h2.44c1.62,0,3.15-.38,4.61-1.16,1.08-.54,1.81-1.35,2.2-2.44.38-1.08.57-3.28.57-6.62v-44.62c0-4.36-.43-7.03-1.32-8.05-1.2-1.36-3.23-2.03-6.07-2.03h-2.44v-1.89h52.92l.76,15.05h-1.96c-.71-3.61-1.51-6.1-2.36-7.45-.86-1.35-2.14-2.38-3.82-3.09-1.36-.51-3.74-.76-7.15-.76h-18.84Z" fill="white"/>
    <path d="M414.19,901.73v61.52c0,2.92.21,4.83.63,5.78.43.93,1.08,1.66,1.95,2.15.87.49,2.52.73,4.91.73v1.82h-22.74v-1.82c2.12,0,3.58-.22,4.36-.67.78-.43,1.38-1.16,1.82-2.17.44-1.01.65-2.95.65-5.83v-42.13c0-5.23-.11-8.44-.35-9.65-.24-1.19-.62-2.01-1.14-2.46-.52-.43-1.19-.65-2-.65-.89,0-2,.27-3.34.81l-.86-1.77,13.82-5.67h2.28Z" fill="white"/>
    <path d="M443.05,925.99v37.26c0,2.92.22,4.85.63,5.8.43.97,1.05,1.68,1.89,2.15.82.48,2.33.71,4.53.71v1.82h-22.55v-1.82c2.27,0,3.79-.22,4.56-.67.78-.43,1.39-1.16,1.85-2.17.44-1.01.68-2.95.68-5.83v-17.87c0-5.02-.16-8.29-.46-9.78-.24-1.08-.6-1.82-1.11-2.25-.51-.43-1.2-.63-2.08-.63-.95,0-2.11.25-3.45.76l-.71-1.82,13.99-5.67h2.22ZM438.85,901.73c1.41,0,2.63.49,3.63,1.49.98,1,1.49,2.2,1.49,3.63s-.51,2.63-1.49,3.64c-1,1.01-2.22,1.52-3.63,1.52s-2.63-.51-3.64-1.52c-1.01-1.01-1.52-2.23-1.52-3.64s.49-2.63,1.49-3.63c1-1,2.22-1.49,3.68-1.49" fill="white"/>
    <path d="M469.33,912.11v15.24h10.84v3.55h-10.84v30.07c0,3.01.43,5.04,1.3,6.08.86,1.05,1.96,1.57,3.31,1.57,1.11,0,2.19-.35,3.23-1.05,1.05-.68,1.87-1.71,2.44-3.06h1.96c-1.17,3.31-2.85,5.8-5.01,7.48-2.15,1.66-4.39,2.5-6.69,2.5-1.55,0-3.07-.43-4.56-1.3-1.47-.86-2.58-2.09-3.28-3.69-.71-1.6-1.06-4.07-1.06-7.41v-31.2h-7.35v-1.68c1.85-.74,3.75-2,5.7-3.77,1.93-1.77,3.66-3.87,5.18-6.31.78-1.28,1.87-3.63,3.25-7.03h1.57Z" fill="white"/>
    <path d="M492.48,944.82c-.03,6.89,1.63,12.29,5.01,16.21,3.39,3.91,7.35,5.88,11.91,5.88,3.03,0,5.67-.84,7.92-2.5,2.23-1.68,4.12-4.53,5.64-8.59l1.57,1.01c-.71,4.63-2.77,8.84-6.18,12.63-3.41,3.8-7.67,5.7-12.8,5.7-5.58,0-10.35-2.17-14.31-6.51-3.98-4.34-5.96-10.17-5.96-17.49,0-7.94,2.04-14.12,6.1-18.57,4.07-4.44,9.17-6.65,15.32-6.65,5.2,0,9.47,1.71,12.82,5.15,3.34,3.42,5.01,8,5.01,13.74h-32.05ZM492.48,941.89h21.47c-.16-2.98-.52-5.07-1.06-6.27-.84-1.9-2.11-3.37-3.77-4.47-1.68-1.08-3.42-1.62-5.24-1.62-2.8,0-5.31,1.09-7.51,3.26-2.22,2.19-3.52,5.21-3.88,9.09" fill="white"/>
    <path d="M617.05,903.5l1.77,21.67h-1.77c-1.79-5.4-4.1-9.47-6.94-12.2-4.09-3.96-9.33-5.93-15.75-5.93-8.75,0-15.4,3.45-19.95,10.38-3.82,5.85-5.72,12.8-5.72,20.87,0,6.54,1.25,12.52,3.79,17.92,2.53,5.4,5.85,9.36,9.95,11.88,4.1,2.52,8.32,3.77,12.64,3.77,2.54,0,4.97-.32,7.34-.97,2.36-.63,4.64-1.58,6.84-2.84v-19.85c0-3.44-.27-5.69-.79-6.75-.52-1.08-1.33-1.89-2.42-2.44-1.09-.55-3.03-.84-5.8-.84v-1.92h26.59v1.92h-1.27c-2.63,0-4.44.89-5.42,2.65-.68,1.24-1.01,3.71-1.01,7.38v21.02c-3.88,2.09-7.72,3.63-11.49,4.61-3.79.97-7.99,1.46-12.61,1.46-13.28,0-23.35-4.25-30.25-12.75-5.16-6.39-7.75-13.74-7.75-22.09,0-6.04,1.46-11.84,4.36-17.36,3.45-6.59,8.18-11.65,14.18-15.19,5.04-2.93,10.98-4.4,17.82-4.4,2.5,0,4.77.21,6.81.6,2.04.41,4.94,1.3,8.68,2.69,1.9.71,3.17,1.06,3.8,1.06s1.19-.3,1.65-.89c.46-.59.73-1.74.84-3.47h1.87Z" fill="white"/>
    <path d="M657.82,967.06c-4.75,3.68-7.75,5.8-8.97,6.37-1.82.86-3.75,1.27-5.81,1.27-3.22,0-5.85-1.09-7.94-3.28-2.08-2.2-3.11-5.09-3.11-8.67,0-2.27.51-4.21,1.52-5.88,1.38-2.3,3.79-4.45,7.21-6.48,3.44-2.03,9.13-4.48,17.1-7.38v-1.84c0-4.61-.73-7.8-2.2-9.51-1.47-1.73-3.61-2.58-6.4-2.58-2.14,0-3.82.57-5.07,1.71-1.28,1.16-1.92,2.47-1.92,3.96l.1,2.93c0,1.55-.4,2.76-1.19,3.6-.79.84-1.84,1.27-3.12,1.27s-2.27-.44-3.06-1.32c-.79-.89-1.19-2.08-1.19-3.6,0-2.92,1.49-5.58,4.45-8,2.98-2.44,7.15-3.64,12.52-3.64,4.1,0,7.49.68,10.12,2.08,1.98,1.05,3.45,2.68,4.4,4.91.6,1.44.9,4.42.9,8.9v15.75c0,4.42.1,7.13.25,8.13.17,1,.46,1.66.84,2.01.4.33.84.49,1.35.49.54,0,1.01-.11,1.41-.35.71-.44,2.08-1.66,4.1-3.69v2.84c-3.77,5.05-7.38,7.59-10.84,7.59-1.65,0-2.96-.57-3.94-1.71-.98-1.16-1.49-3.12-1.52-5.88M657.82,963.77v-17.67c-5.1,2.01-8.4,3.45-9.87,4.29-2.68,1.49-4.58,3.04-5.72,4.66-1.16,1.63-1.73,3.39-1.73,5.32,0,2.42.73,4.45,2.17,6.05,1.46,1.6,3.12,2.41,5.02,2.41,2.57,0,5.94-1.7,10.12-5.07" fill="white"/>
    <path d="M691.04,912.11v15.24h10.84v3.55h-10.84v30.07c0,3.01.43,5.04,1.3,6.08.86,1.05,1.96,1.57,3.31,1.57,1.11,0,2.19-.35,3.23-1.05,1.05-.68,1.87-1.71,2.44-3.06h1.96c-1.17,3.31-2.85,5.8-5.01,7.48-2.15,1.66-4.39,2.5-6.69,2.5-1.55,0-3.07-.43-4.56-1.3-1.47-.86-2.57-2.09-3.28-3.69-.71-1.6-1.06-4.07-1.06-7.41v-31.2h-7.35v-1.68c1.85-.74,3.75-2,5.7-3.77,1.93-1.77,3.66-3.87,5.18-6.31.78-1.28,1.87-3.63,3.25-7.03h1.57Z" fill="white"/>
    <path d="M714.18,944.82c-.03,6.89,1.63,12.29,5.01,16.21,3.39,3.91,7.35,5.88,11.91,5.88,3.03,0,5.67-.84,7.92-2.5,2.23-1.68,4.12-4.53,5.64-8.59l1.57,1.01c-.71,4.63-2.77,8.84-6.18,12.63-3.41,3.8-7.67,5.7-12.8,5.7-5.58,0-10.35-2.17-14.31-6.51-3.98-4.34-5.96-10.17-5.96-17.49,0-7.94,2.04-14.12,6.1-18.57,4.07-4.44,9.17-6.65,15.32-6.65,5.2,0,9.47,1.71,12.82,5.15,3.34,3.42,5.01,8,5.01,13.74h-32.05ZM714.18,941.89h21.47c-.16-2.98-.52-5.07-1.06-6.27-.84-1.9-2.11-3.37-3.77-4.47-1.68-1.08-3.42-1.62-5.24-1.62-2.8,0-5.31,1.09-7.51,3.26-2.22,2.19-3.52,5.21-3.88,9.09" fill="white"/>
    <path d="M397.66,848.08c-6.69.25-12.1-1.89-16.22-6.39-1.27-1.38-2.74-3.74-4.45-7.08-1.17-2.34-2.38-3.55-3.63-3.63-1.68-.13-3.9,1.03-6.69,3.47-2.77,2.44-4.67,4.82-5.72,7.11-1.81,4.47-3.61,8.94-5.45,13.4-1.96,4.18-4.31,6.26-7.02,6.26-3.34,0-6.32-2.2-8.95-6.64-2.76-4.72-4.14-10.47-4.14-17.29,0-2.71.4-6.37,1.19-10.96.29-1.71.68-2.57,1.19-2.57.54,0,.78.98.68,2.95-.03,1.58-.14,3.36-.3,5.32-.1,1.51-.13,2.74-.13,3.69,0,3.88.68,7.68,2.06,11.41,1.71,4.75,4.01,7.13,6.89,7.13,2.5,0,4.55-1.46,6.13-4.37,1.47-3.52,2.92-7,4.33-10.47,2.14-5.01,4.71-9.09,7.72-12.26,3.33-3.56,6.53-5.34,9.57-5.34,1.55,0,3.18,1.38,4.9,4.14,2.68,4.39,4.17,6.77,4.52,7.15,3.58,4.14,8.1,6.21,13.53,6.21v8.76ZM364.13,797.71c0,1.05-.24,2.3-.74,3.77-.63,1.74-1.33,2.63-2.14,2.63-.36,0-1.89-.82-4.56-2.46-2.88-1.71-4.33-2.92-4.33-3.63,0-.67,1.03-3.23,3.07-7.7,1.2,1.2,3.18,2.63,5.94,4.26,1.84,1.05,2.76,2.08,2.76,3.12M376.73,794.09c0,.63-.27,1.76-.81,3.39-.71,1.95-1.44,3.36-2.2,4.18-1.66-.87-3.31-1.77-4.94-2.69-2.3-1.28-3.45-2.27-3.45-2.93,0-.25.44-1.46,1.32-3.61.89-2.14,1.51-3.22,1.89-3.22,5.47,2.33,8.21,3.96,8.21,4.88" fill="white"/>
    <path d="M421.52,848.08c-1.25,0-2.88-.49-4.88-1.49-2.34-1.17-4.06-2.55-5.13-4.14-.89-1.35-1.27-2.99-1.14-4.96-1.84,3.75-3.31,6.18-4.44,7.27-2.3,2.22-5.05,3.31-8.27,3.31v-8.76c3.93,0,6.83-.67,8.7-2.01.51-.33,1.14-1.22,1.89-2.69.87-1.71,1.39-2.66,1.57-2.87,2.09-2.73,3.14-3.26,3.14-1.63,0,.59-.17,1.35-.51,2.31.21.59.55,1.32,1.03,2.17.48.86,1.68,1.85,3.6,2.99,1.93,1.16,3.41,1.73,4.45,1.73v8.76ZM413.63,871.64c0,2.88-.84,5.32-2.5,7.34-2.42-1.27-4.86-2.49-7.34-3.71-1.2-.7-1.81-1.44-1.81-2.19,0,.25.74-2.34,2.25-7.76,1.08.92,3.14,2.08,6.13,3.5,2.17,1.05,3.26,1.98,3.26,2.82" fill="white"/>
    <path d="M485.98,820.9c.25.08-.02,1.44-.79,4.07-.78,2.63-1.36,3.93-1.77,3.88-2.52-.21-6.16.79-10.96,3.01-.25.46-.51.93-.76,1.44-.33.74-.48,1.66-.43,2.76.13,2.17,4.47,3.25,13.02,3.25v8.78c-5.01,0-8.33-.16-9.97-.44-2.12-.41-3.71-1.36-4.75-2.82-.41-.59-.63-1.6-.63-3.07,0-3.96.68-7,2.01-9.14-5.23,2.5-10.44,5.01-15.67,7.53-6.97,3.09-13.55,5.28-19.73,6.58,0,1.84-.33,3.42-1,4.75-.3.59-.6.89-.93.89-.63,0-.89-.65-.76-1.95.08-.87-.06-1.92-.44-3.14-3.3.55-6.92.82-10.9.82v-8.78c3.06,0,5.69-.1,7.91-.32-2.55-6.05-3.83-9.79-3.83-11.2.05-4.39,1.38-8.13,4.01-11.25,2.65-3.11,6.04-4.77,10.22-4.97,2.71-.13,9.13,1.06,19.23,3.56,12.36,3.04,21.34,4.97,26.93,5.77M467.93,826.48c-2.12-.25-6.7-1.41-13.72-3.45-6.1-1.76-11.31-2.63-15.65-2.63-1.3,0-2.58.06-3.85.19-1.28.13-2.6.87-3.96,2.22-1.35,1.36-2.03,2.6-2.03,3.74,0,.24.05.48.13.68,1.2,2.17,2.9,5.85,5.07,11.03,11.28-2.01,22.62-5.93,34.02-11.77M446.45,793.58c-.25,1.38-.48,2.76-.68,4.14-.46,2.12-1.01,3.2-1.63,3.2-.76,0-2.17-.55-4.26-1.63-1.92-1-2.96-1.65-3.11-1.92-.14-.27-.25-.76-.35-1.47.46-1.41,1.03-3.45,1.7-6.13.13-.79.36-1.17.7-1.12l1.06.68c1.25.51,3.14,1.38,5.64,2.63.29.08.55.19.81.32.25.13.3.57.13,1.31" fill="white"/>
    <path d="M508.15,848.09c-1.25,0-2.88-.51-4.88-1.51-2.34-1.17-4.06-2.55-5.15-4.14-.87-1.33-1.25-2.99-1.12-4.94-1.84,3.75-3.31,6.18-4.44,7.26-2.3,2.22-5.05,3.33-8.27,3.33v-8.78c3.91,0,6.83-.67,8.7-2,.51-.33,1.12-1.24,1.89-2.69.87-1.71,1.39-2.68,1.57-2.88,2.08-2.73,3.12-3.26,3.12-1.63,0,.59-.16,1.36-.49,2.31.21.59.54,1.32,1.03,2.17.48.86,1.68,1.85,3.6,3.01,1.92,1.14,3.41,1.71,4.45,1.71v8.78ZM498.63,808.49c0,2.88-.84,5.39-2.5,7.51-2.47-1.28-4.93-2.58-7.4-3.88-1.2-.67-1.81-1.38-1.81-2.12,0,.25.74-2.34,2.25-7.76,1.09.87,3.15,2.04,6.19,3.5,2.17,1,3.26,1.92,3.26,2.76" fill="white"/>
    <path d="M523.12,824.03c.17,8.02-1.06,13.85-3.69,17.48-3.18,4.39-6.94,6.58-11.28,6.58v-8.76c3.47,0,6.04-.51,7.7-1.51,1.35-.76,2.47-2.11,3.39-4.07.08-.13.13-.46.13-1,0-3.85-2.11-22.01-6.34-54.5-.7-5.59-1.25-11.9-1.62-18.92-.1-.25-.46-.84-1.14-1.76-.24-.33-.36-.79-.36-1.38,0-1.12.67-3.77,2-7.95.1-.29.21-.44.38-.44.41,0,1,.97,1.76,2.88,4.29,8.14,6.45,13.44,6.45,15.86,0,.41-.13.62-.38.62-.21,0-.48-.13-.81-.38-.08-.08-1.19-1.28-3.33-3.63,2.14,15.54,4.52,35.84,7.15,60.89" fill="white"/>
    <path d="M547.68,827.79c.17,2.09.25,4.12.25,6.08,0,6.92-.82,11.91-2.44,14.96-.63,1.17-1.09,1.76-1.38,1.76-.46,0-.52-1.33-.19-4.01.41-3.37.43-6.91.06-10.58-1.51-11.95-3.6-29.9-6.27-53.87-.33-4.39-.89-10.71-1.68-18.98-.13-.46-.7-1.7-1.7-3.69-.25-.46.41-3.12,2-7.97.1-.29.22-.43.38-.43.41,0,1,.89,1.76,2.69,1.3,2.76,2.57,5.51,3.82,8.27,2,4.26,3.01,6.91,3.01,7.95,0,.33-.13.49-.38.49-.17,0-.44-.11-.81-.36-1.05-.79-2.15-1.81-3.33-3.01-.08,1.17.78,8.86,2.57,23.05,2.17,16.91,3.61,29.45,4.33,37.64" fill="white"/>
    <path d="M630.62,848.08c-6.69.25-12.1-1.89-16.22-6.39-1.27-1.38-2.74-3.74-4.45-7.08-1.17-2.34-2.38-3.55-3.64-3.63-1.66-.13-3.88,1.03-6.67,3.47-2.77,2.44-4.67,4.82-5.72,7.11-1.81,4.47-3.61,8.94-5.45,13.4-1.96,4.18-4.31,6.26-7.02,6.26-3.34,0-6.32-2.2-8.95-6.64-2.76-4.72-4.14-10.47-4.14-17.29,0-2.71.4-6.37,1.19-10.96.29-1.71.68-2.57,1.19-2.57.54,0,.78.98.68,2.95-.03,1.58-.14,3.36-.3,5.32-.1,1.51-.13,2.74-.13,3.69,0,3.88.68,7.68,2.06,11.41,1.71,4.75,4.01,7.13,6.89,7.13,2.5,0,4.55-1.46,6.13-4.37,1.47-3.52,2.92-7,4.33-10.47,2.14-5.01,4.71-9.09,7.72-12.26,3.33-3.56,6.53-5.34,9.57-5.34,1.55,0,3.18,1.38,4.9,4.14,2.68,4.39,4.17,6.77,4.52,7.15,3.58,4.14,8.1,6.21,13.53,6.21v8.76ZM597.1,797.71c0,1.05-.25,2.3-.74,3.77-.63,1.74-1.33,2.63-2.14,2.63-.36,0-1.89-.82-4.56-2.46-2.88-1.71-4.33-2.92-4.33-3.63,0-.67,1.03-3.23,3.07-7.7,1.2,1.2,3.18,2.63,5.94,4.26,1.84,1.05,2.76,2.08,2.76,3.12M609.69,794.09c0,.63-.27,1.76-.81,3.39-.71,1.95-1.44,3.36-2.2,4.18-1.66-.87-3.31-1.77-4.94-2.69-2.3-1.28-3.45-2.27-3.45-2.93,0-.25.44-1.46,1.31-3.61.89-2.14,1.51-3.22,1.89-3.22,5.47,2.33,8.21,3.96,8.21,4.88" fill="white"/>
    <path d="M650.16,827.66c.59,4.39-.89,8.62-4.39,12.72-1.43,1.66-3.53,3.3-6.32,4.88-3.34,1.89-6.29,2.82-8.84,2.82v-8.78c3.75,0,7.67-1.11,11.71-3.31,3.64-2.01,5.29-3.42,4.96-4.26-.59-1.46-2.87-4.48-6.83-9.08-3.8-4.39-6.43-8.78-7.89-13.17-.89,0-1.3-.22-1.25-.68.16-1.55.41-3.68.74-6.39.25-1.3.7-1.65,1.32-1.08,2.09,1.47,4.64,3.33,7.64,5.58,1.05.89,1.57,1.57,1.57,2.08,0,.41-.35.62-1.06.62-1.17,0-2.19-.08-3.07-.25.38,1.14,2.41,3.8,6.08,8.03,3.34,3.88,5.21,7.3,5.64,10.27M648.34,865.37c0,2.76-.86,5.24-2.57,7.45-2.42-1.25-4.86-2.52-7.34-3.82-1.2-.67-1.81-1.38-1.81-2.12,0,.29.74-2.31,2.25-7.83,1.09.92,3.15,2.11,6.19,3.56,2.17,1,3.26,1.92,3.26,2.76" fill="white"/>
    <path d="M674.4,827.79c.17,2.09.25,4.12.25,6.08,0,6.92-.82,11.91-2.44,14.96-.63,1.17-1.09,1.76-1.38,1.76-.46,0-.52-1.33-.19-4.01.41-3.37.43-6.91.06-10.58-1.51-11.95-3.6-29.9-6.27-53.87-.33-4.39-.89-10.71-1.68-18.98-.13-.46-.7-1.7-1.7-3.69-.25-.46.41-3.12,2-7.97.1-.29.22-.43.38-.43.41,0,1,.89,1.76,2.69,1.3,2.76,2.57,5.51,3.82,8.27,2.01,4.26,3.01,6.91,3.01,7.95,0,.33-.13.49-.38.49-.16,0-.44-.11-.81-.36-1.05-.79-2.15-1.81-3.33-3.01-.08,1.17.78,8.86,2.57,23.05,2.17,16.91,3.61,29.45,4.33,37.64" fill="white"/>
    <path d="M724.95,848.07c-.92.1-1.9.13-2.95.13-.08.46-.27,1.43-.57,2.88-.82,4.47-2.65,8.25-5.45,11.34-5.62,5.13-12.2,10.17-19.73,15.1-6.77,4.37-12.36,7.46-16.79,9.27-9.14,1.33-17.32,3.34-24.54,6-1.51.55-2.73.82-3.64.82-.59,0-.87-.13-.87-.38,0-.54,1.14-1.32,3.44-2.31,7.02-3.06,14.31-6.5,21.86-10.35,9.27-4.67,18.9-10.46,28.88-17.35,9.73-6.72,14.64-10.85,14.72-12.41-.21-1-.51-1.87-.87-2.63-7.94,0-12.88-.41-14.85-1.25-1.09-.46-2.09-1.27-3.01-2.44-1.09-1.33-1.63-2.63-1.63-3.88.05-3.5,1.16-6.81,3.33-9.93,2.17-3.11,4.42-4.66,6.77-4.66,1.66,0,3.83,1.38,6.51,4.14,2.79,2.88,4.69,5.94,5.7,9.21,1.38,0,2.6-.02,3.69-.06v8.76ZM712.55,839.25c-.38-.51-.84-1.14-1.38-1.95-.84-1.25-1.96-1.92-3.37-2-1.01-.05-1.82.17-2.46.67-.62.48-.92,1.19-.87,2.15.67.59,3.36.95,8.08,1.12" fill="white"/>
    <path d="M744.5,827.66c.59,4.39-.89,8.62-4.39,12.72-1.43,1.66-3.53,3.3-6.32,4.88-3.34,1.89-6.29,2.82-8.84,2.82v-8.78c3.75,0,7.67-1.11,11.71-3.31,3.64-2.01,5.29-3.42,4.96-4.26-.59-1.46-2.87-4.48-6.83-9.08-3.8-4.39-6.43-8.78-7.89-13.17-.89,0-1.3-.22-1.25-.68.16-1.55.41-3.68.74-6.39.25-1.3.7-1.65,1.32-1.08,2.09,1.47,4.64,3.33,7.64,5.58,1.05.89,1.57,1.57,1.57,2.08,0,.41-.35.62-1.06.62-1.17,0-2.19-.08-3.07-.25.38,1.14,2.41,3.8,6.08,8.03,3.34,3.88,5.21,7.3,5.64,10.27M742.68,865.37c0,2.76-.86,5.24-2.57,7.45-2.42-1.25-4.86-2.52-7.34-3.82-1.2-.67-1.81-1.38-1.81-2.12,0,.29.74-2.31,2.25-7.83,1.09.92,3.15,2.11,6.19,3.56,2.17,1,3.26,1.92,3.26,2.76" fill="white"/> -->
  </g>
</svg>